#!OML:ASF E:\Steps\Project 1\Capture day 1\Session 2\Subject.ASF
:FULLY-SPECIFIED
:DEGREES
338
root 8.71152 16.1534 18.7635 -158.432 0.289128 180.177
lowerback -25.0238 -2.54806 -4.04946
upperback 0.827655 -2.15639 1.22525
thorax 15.3074 -1.275 2.96604
lowerneck -3.4836 -2.54202 -0.672556
upperneck 16.3607 -2.92909 1.86675
head 5.53828 -1.03713 0.555192
rclavicle 8.84592e-015 -5.1684e-015
rhumerus -41.3473 -24.7015 -72.3406
rradius 28.2207
rwrist 1.81332
rhand -9.49983 -52.3336
rfingers 7.12502
rthumb 16.4653 -81.6549
lclavicle 8.84592e-015 -5.1684e-015
lhumerus -29.7445 -0.134568 82.2226
lradius 28.0904
lwrist -3.04694
lhand -19.6159 -14.6116
lfingers 7.12502
lthumb 6.71062 15.2621
rfemur -30.8274 3.69234 22.8816
rtibia 13.0249
rfoot -15.3594 -3.05835
rtoes -35.5914
lfemur -33.9013 -1.96665 -19.7885
ltibia 65.9108
lfoot 4.25218 0.771454
ltoes -31.1183
339
root 8.73393 16.156 18.6627 -158.559 0.463223 180.196
lowerback -24.5179 -2.41884 -3.9269
upperback 0.613834 -2.01619 1.11331
thorax 14.738 -1.17934 2.82771
lowerneck -3.25332 -2.44178 -0.56804
upperneck 16.3532 -2.77546 1.80593
head 5.49195 -0.954669 0.530808
rclavicle -9.11925e-015 1.68967e-015
rhumerus -41.2559 -23.622 -73.0491
rradius 28.6346
rwrist 1.08591
rhand -9.39958 -52.2873
rfingers 7.12502
rthumb 16.5618 -81.6006
lclavicle -9.11925e-015 1.68967e-015
lhumerus -30.4415 -0.0927543 82.0758
lradius 27.978
lwrist -3.3702
lhand -19.6122 -14.5773
lfingers 7.12502
lthumb 6.71418 15.2963
rfemur -30.1426 3.56242 23.0994
rtibia 12.7873
rfoot -15.5796 -2.84243
rtoes -35.9101
lfemur -35.0511 -1.41431 -19.9228
ltibia 67.2651
lfoot 3.76126 1.83566
ltoes -29.2677
340
root 8.7557 16.1592 18.5626 -158.647 0.585265 180.157
lowerback -24.9101 -2.35446 -4.07765
upperback 0.959526 -1.8957 1.13327
thorax 15.3746 -1.16603 2.97348
lowerneck -3.46308 -2.72958 -0.767301
upperneck 16.0342 -3.23348 2.07442
head 5.44235 -1.19279 0.617668
rclavicle 2.22887e-014 -5.26779e-015
rhumerus -40.0421 -22.861 -73.8741
rradius 28.9078
rwrist 0.389363
rhand -9.26604 -52.0724
rfingers 7.12502
rthumb 16.6903 -81.3749
lclavicle 2.22887e-014 -5.26779e-015
lhumerus -30.0102 0.274143 82.1473
lradius 27.5645
lwrist -3.80749
lhand -19.908 -14.6062
lfingers 7.12502
lthumb 6.42861 15.2763
rfemur -29.5073 3.45884 23.2239
rtibia 12.5803
rfoot -15.8964 -2.64081
rtoes -36.129
lfemur -36.1988 -1.007 -20.0355
ltibia 68.1735
lfoot 3.5134 2.77199
ltoes -24.0421
341
root 8.77962 16.1643 18.4709 -158.673 0.858347 180.083
lowerback -24.9931 -2.29344 -4.14974
upperback 1.12414 -1.78812 1.04698
thorax 15.6113 -1.13196 2.95211
lowerneck -3.58679 -2.59534 -0.993972
upperneck 15.7509 -3.08642 2.25008
head 5.37947 -1.13894 0.716228
rclavicle -4.89507e-015 -6.4605e-015
rhumerus -39.0297 -21.9815 -74.7828
rradius 29.1924
rwrist -0.23093
rhand -9.35502 -51.9915
rfingers 7.12502
rthumb 16.6047 -81.3012
lclavicle -4.89507e-015 -6.4605e-015
lhumerus -29.8658 0.788903 81.9778
lradius 27.2146
lwrist -4.15537
lhand -20.4802 -14.7067
lfingers 7.12502
lthumb 5.87619 15.1918
rfemur -29.009 3.5037 23.251
rtibia 12.3826
rfoot -16.1245 -2.3872
rtoes -36.1008
lfemur -37.4258 -0.523562 -20.2489
ltibia 68.9961
lfoot 3.26822 3.44504
ltoes -23.1516
342
root 8.80569 16.1729 18.3795 -158.749 1.17426 180.036
lowerback -25.0034 -2.15496 -4.35418
upperback 1.20934 -1.53478 0.959494
thorax 15.7017 -1.03802 3.06342
lowerneck -3.45381 -2.61735 -0.819862
upperneck 15.5994 -3.12976 2.22487
head 5.30722 -1.15575 0.678755
rclavicle 1.13307e-014 -3.08116e-015
rhumerus -38.3353 -21.6035 -75.3091
rradius 29.3577
rwrist -0.478846
rhand -9.57579 -52.3371
rfingers 7.12502
rthumb 16.3921 -81.6645
lclavicle 1.13307e-014 -3.08116e-015
lhumerus -29.8764 1.11796 81.8336
lradius 26.835
lwrist -4.54506
lhand -20.6318 -14.7411
lfingers 7.12502
lthumb 5.72981 15.1614
rfemur -28.408 3.48541 23.3581
rtibia 12.1078
rfoot -16.2845 -2.10004
rtoes -36.1914
lfemur -38.5379 -0.0560461 -20.4536
ltibia 69.8085
lfoot 2.50133 3.94963
ltoes -24.01
343
root 8.82938 16.1836 18.2821 -158.932 1.4196 180.01
lowerback -24.8988 -2.0382 -4.59744
upperback 1.26925 -1.3161 0.94802
thorax 15.7007 -0.96532 3.27373
lowerneck -3.46807 -2.61774 -0.670488
upperneck 15.7869 -3.10939 2.09926
head 5.36315 -1.13572 0.616328
rclavicle 5.06901e-015 2.28602e-015
rhumerus -37.7417 -21.5605 -75.4698
rradius 29.3367
rwrist -0.239434
rhand -9.59047 -52.6219
rfingers 7.12502
rthumb 16.378 -81.9504
lclavicle 5.06901e-015 2.28602e-015
lhumerus -29.9712 1.56066 81.7348
lradius 26.4021
lwrist -4.99867
lhand -20.4312 -15.0231
lfingers 7.12502
lthumb 5.92351 14.8741
rfemur -27.5658 3.32937 23.5272
rtibia 11.6719
rfoot -16.3835 -1.80547
rtoes -36.6485
lfemur -39.4185 0.211804 -20.5698
ltibia 70.2815
lfoot 1.6726 4.32471
ltoes -23.7064
344
root 8.85075 16.1893 18.1917 -158.84 1.65858 179.929
lowerback -24.2817 -1.96952 -4.7876
upperback 0.829899 -1.17236 0.900909
thorax 14.8051 -0.873059 3.38815
lowerneck -3.24586 -2.57452 -0.585619
upperneck 16.1731 -2.99217 1.98251
head 5.44037 -1.05673 0.576303
rclavicle 3.95085e-015 -2.98177e-015
rhumerus -37.7472 -21.2235 -75.5085
rradius 29.2787
rwrist -0.206089
rhand -9.11849 -52.0542
rfingers 7.12502
rthumb 16.8324 -81.3447
lclavicle 3.95085e-015 -2.98177e-015
lhumerus -30.8117 2.16699 81.4569
lradius 26.1001
lwrist -5.49478
lhand -20.5773 -15.2642
lfingers 7.12502
lthumb 5.78245 14.6369
rfemur -27.2038 3.28185 23.5542
rtibia 11.4794
rfoot -16.5126 -1.59084
rtoes -36.8586
lfemur -40.6259 0.383942 -20.6881
ltibia 70.3475
lfoot 1.29928 4.50116
ltoes -22.8328
345
root 8.87235 16.1969 18.0974 -158.856 1.85761 179.847
lowerback -24.6607 -1.95457 -5.03138
upperback 1.09064 -1.07023 0.888591
thorax 15.3327 -0.871596 3.54984
lowerneck -3.30026 -2.56193 -0.625145
upperneck 15.8601 -3.01142 2.05056
head 5.35429 -1.08092 0.60166
rclavicle -4.32357e-015 3.97569e-016
rhumerus -36.44 -20.9966 -76.0085
rradius 29.0542
rwrist -0.299766
rhand -8.02141 -50.3761
rfingers 7.12502
rthumb 17.8882 -79.5734
lclavicle -4.32357e-015 3.97569e-016
lhumerus -30.4938 3.11155 81.2152
lradius 25.587
lwrist -5.95694
lhand -20.7135 -14.9864
lfingers 7.12502
lthumb 5.65097 14.9182
rfemur -26.7193 3.20625 23.5807
rtibia 11.332
rfoot -16.6702 -1.38996
rtoes -36.9245
lfemur -41.6633 0.463676 -20.776
ltibia 70.2626
lfoot 0.782159 4.43741
ltoes -22.8013
